<svg width="56" height="56" viewBox="0 0 56 56" fill="none" xmlns="http://www.w3.org/2000/svg">
<rect x="55.5" y="55.5" width="55" height="55" rx="27.5" transform="rotate(-180 55.5 55.5)" stroke="#00461C"/>
<path d="M36.7071 28.7071C37.0976 28.3166 37.0976 27.6834 36.7071 27.2929L30.3431 20.9289C29.9526 20.5384 29.3195 20.5384 28.9289 20.9289C28.5384 21.3195 28.5384 21.9526 28.9289 22.3431L34.5858 28L28.9289 33.6569C28.5384 34.0474 28.5384 34.6805 28.9289 35.0711C29.3195 35.4616 29.9526 35.4616 30.3431 35.0711L36.7071 28.7071ZM20 29L36 29L36 27L20 27L20 29Z" fill="#00461C"/>
</svg>
