<svg width="16" height="16" viewBox="0 0 16 16" fill="none" xmlns="http://www.w3.org/2000/svg">
<path d="M7.99997 0.688012C6.55383 0.688209 5.14023 1.11722 3.93791 1.92079C2.73559 2.72436 1.79855 3.86641 1.24527 5.20252C0.691999 6.53863 0.54734 8.0088 0.829588 9.42712C1.11184 10.8454 1.80832 12.1482 2.83096 13.1707C3.8536 14.1932 5.15647 14.8895 6.57484 15.1716C7.9932 15.4536 9.46335 15.3088 10.7994 14.7553C12.1354 14.2019 13.2773 13.2647 14.0807 12.0622C14.8842 10.8598 15.313 9.44615 15.313 8.00001C15.3111 6.06105 14.54 4.20204 13.169 2.83099C11.7979 1.45993 9.93893 0.689865 7.99997 0.688012ZM11.21 6.71001L7.27297 10.648C7.22076 10.7004 7.15873 10.7419 7.09043 10.7703C7.02214 10.7986 6.94892 10.8132 6.87497 10.8132C6.80102 10.8132 6.7278 10.7986 6.6595 10.7703C6.59121 10.7419 6.52918 10.7004 6.47697 10.648L4.78997 8.96001C4.69392 8.85278 4.64259 8.71282 4.64655 8.56891C4.65051 8.425 4.70944 8.28808 4.81124 8.18628C4.91303 8.08448 5.04996 8.02555 5.19387 8.02159C5.33778 8.01764 5.47773 8.06896 5.58497 8.16501L6.87497 9.45501L10.415 5.91501C10.5218 5.81666 10.6625 5.7634 10.8077 5.76635C10.9529 5.76931 11.0914 5.82826 11.1941 5.93089C11.2969 6.03351 11.356 6.17187 11.3591 6.31706C11.3623 6.46225 11.3092 6.60304 11.211 6.71001H11.21Z" fill="#00461C"/>
</svg>
