<?xml version="1.0" encoding="utf-8"?>
<!-- Generator: Adobe Illustrator 25.3.1, SVG Export Plug-In . SVG Version: 6.00 Build 0)  -->
<svg version="1.1" id="Layer_1" xmlns="http://www.w3.org/2000/svg" xmlns:xlink="http://www.w3.org/1999/xlink" x="0px" y="0px"
	 viewBox="0 0 26 22" style="enable-background:new 0 0 26 22;" xml:space="preserve">
<style type="text/css">
	.st0{opacity:0.5;}
	.st1{fill:#00461C;}
	.st2{fill-rule:evenodd;clip-rule:evenodd;fill:#00461C;}
</style>
<g class="st0">
	<path class="st1" d="M17.5,14.1c-0.5-0.2-0.8-0.7-1-1.3c-0.3-1.1,0.2-2.4,1.1-2.8c0.5-0.2,1-0.2,1.4,0.1l-0.1,0.2l-1.4,3.6V14.1
		L17.5,14.1z"/>
</g>
<g class="st0">
	<path class="st1" d="M4.6,16c0.1,0.2,0.2,0.3,0.4,0.5c0.4,0.3,1,0.6,1.6,0.5c0.6,0,1.2-0.2,1.7-0.6c0.4-0.4,0.8-1,0.9-1.6H5.4
		l-0.6,0.3C4.6,15.2,4.4,15.7,4.6,16L4.6,16z"/>
</g>
<g class="st0">
	<path class="st1" d="M3.1,8.3c0.6,0,1.2,0.3,1.6,0.8c0.8,1,0.8,2.7,0,3.7c-0.4,0.5-1,0.8-1.6,0.8V8.3L3.1,8.3z"/>
</g>
<path class="st2" d="M22,3.7c-0.2,0-0.4,0.2-0.4,0.4s0.2,0.4,0.4,0.4c0.2,0,0.4-0.2,0.4-0.4S22.2,3.7,22,3.7z"/>
<g class="st0">
	<path class="st2" d="M9.1,4.9C9,5.3,8.9,5.8,8.9,6.2c0,0.2,0,0.5,0.1,0.7C8.1,7.3,7.8,8.4,8.1,9.4c0.2,0.7,0.8,1.1,1.4,1.2
		c0.6,0,1.1-0.4,1.4-1.1c0.3,0.1,0.6,0.2,0.8,0.2c1.6,0,2.8-1.5,2.8-3.4l0,0c0-0.5-0.1-0.9-0.2-1.3L9.1,4.9z"/>
</g>
<path class="st1" d="M9.4,4.5C9.3,4.8,9.3,5.2,9.3,5.6c0,0.1,0,0.3,0,0.4v0.1C9,6.3,8.8,6.6,8.6,6.9c-0.5,0.9-0.4,2,0.2,2.8
	c0.3,0.4,0.8,0.6,1.3,0.6c0.6,0,1.2-0.4,1.5-1c0.1,0,0.2,0,0.2,0.1c1,0.2,2-0.2,2.6-1c0.8-1,1.1-2.5,0.7-3.8h0.1
	c0.7,0,1.5-0.1,2.2-0.4c0.4-0.1,0.7-0.4,0.9-0.8c0.1,0.1,0.2,0.1,0.3,0.2c0.1,0.1,0.3,0,0.4-0.1c0.1-0.1,0-0.3-0.1-0.4
	s-0.3-0.2-0.4-0.3c-0.5-0.4-0.7-1-0.8-1.7c1.1,0,1.3,0.7,2,1.7c0.3,0.4,0.7,0.1,0.4-0.3c-0.8-1.4-1.1-2.1-2.7-2
	c-0.1,0-0.3,0.2-0.2,0.3c0,0.9,0.2,1.8,0.8,2.3c-0.2,0.2-0.4,0.4-0.7,0.5c-0.5,0.2-1.1,0.3-1.6,0.3H4.4C3.2,3.8,2.5,4.4,2,5.3
	c-0.5,0.9-0.5,2-0.5,3c0,1.4,0,2.7,0,4.1c0,0.2,0,0.4,0,0.6c-0.5,0.4-0.6,0.9-0.8,1.5c-0.1,0.6-0.3,1.1-0.7,1.6
	c-0.1,0.1-0.1,0.3,0,0.4s0.2,0.1,0.2,0.1c0.8-0.3,1.2-0.5,1.5-1C2.1,15,2.1,13.8,2.1,13c0-1.6,0-3.1,0-4.7c0-1,0.1-2,0.4-2.7
	c0.4-0.9,1.1-1.2,1.9-1.2C4.1,4.7,3.8,5,3.5,5.4C3,6.5,2.6,7.8,2.6,9.1c0,3.6,0,7.1,0,10.7v0.1C2.7,20.4,2.8,21,3,21.5
	C3.2,21.9,3.5,22,3.9,22h0.7c0.3,0,0.5-0.3,0.5-0.7c0-0.1,0-0.1,0-0.2l-0.6-1.4l0.5-4c0.2,0.2,0.4,0.3,0.6,0.4l-0.1,0.4
	c0,0.2,0.1,0.3,0.2,0.4S6,16.8,6,16.6v-0.3c0.2,0.1,0.5,0.1,0.8,0.1v0.3c0,0.2,0.1,0.3,0.3,0.3c0.2,0,0.3-0.1,0.3-0.3v-0.3
	c0.3,0,0.5-0.1,0.7-0.2l0.1,0.2c0.1,0.2,0.2,0.2,0.3,0.2c0.1-0.1,0.2-0.3,0.1-0.4l-0.1-0.3c0.5-0.3,1.2-1.4,1.2-1.5H13v5.4v0.1
	c0.1,0.6,0.2,0.8,0.4,1.5c0.1,0.5,0.5,0.7,0.9,0.7H15c0.3,0,0.5-0.3,0.5-0.7c0-0.1,0-0.1,0-0.2l-0.6-1.4l0.4-3.5
	c0.7-0.1,1.3-0.3,1.9-0.7c0.6-0.4,1.1-1,1.4-1.7l1.1-2.8c0-0.1,0.1-0.2,0.1-0.3c0.3-0.8,0.7-1.8,1.9-1.9h2.5c0.5,0,1.3-0.8,1.3-0.9
	c0.3-0.5,0.4-1,0.3-1.6c-0.1-0.3-0.2-0.5-0.4-0.7c-0.2-0.2-0.4-0.2-0.6-0.2l-2.1-2.6c-0.1-0.2-0.8-1-1-1.3c0.4-0.3,0.9-0.5,1.4-0.7
	c0.1,0,0.2-0.1,0.2-0.2c0-0.2,0-0.3-0.2-0.4c-0.6-0.1-1.2-0.1-1.8,0c-0.5,0.1-1,0.4-1.5,0.8c-0.1,0.1-0.1,0.3,0,0.4
	c0.1,0.1,0.2,0.1,0.3,0c0.4-0.3,0.8-0.5,1.3-0.6c0.1,0,0.2,0,0.3-0.1c-0.1,0.1-0.2,0.1-0.3,0.2c-0.4,0.3-0.8,0.7-1.1,1.2
	c-0.1,0.1-0.1,0.3,0.1,0.4c0.1,0.1,0.3,0.1,0.4-0.1c0.1-0.2,0.3-0.4,0.5-0.6c0.2,0.3,0.9,1.1,1.1,1.3C23,4,23.7,4.8,24.3,5.6
	c-0.2,0.2-0.4,0.4-0.5,0.7c-0.1,0.1,0,0.3,0.1,0.4s0.3,0,0.4-0.1c0,0,0.1-0.4,0.5-0.6C24.9,6,25.1,6,25.1,6c0.1,0,0.2,0.1,0.2,0.1
	c0.2,0.6-0.2,1.3-0.5,1.6C24.7,7.9,24.5,8,24.4,8h-2.6c-1.3,0.1-1.8,0.9-2.2,1.7c-0.2-0.1-0.5-0.2-0.8-0.2c-1.1,0-2,1.1-2,2.4
	c0,0.8,0.4,1.6,1,2.1c-0.2,0.3-0.5,0.6-0.8,0.8c-0.6,0.4-1.3,0.6-1.9,0.7c-0.1,0-0.2,0.1-0.2,0.3l-0.5,3.7h-0.1
	c-0.1,0-0.3,0.1-0.3,0.3c0,0.2,0.1,0.3,0.3,0.3h0.2l0.5,1.3h-0.6c-0.1,0-0.2,0-0.3-0.1L14,21.2c-0.1-0.6-0.2-0.8-0.4-1.4V14
	c0-0.2-0.1-0.3-0.3-0.3h-5C8.2,13.7,8,13.9,8,14c0,0.2,0.1,0.3,0.3,0.3h0.8c-0.1,0.2-0.2,0.4-0.3,0.5c-0.9,1-2.2,1.2-3.3,0.5
	c1.7-0.6,2.7-1.7,3.5-3.5c0.1-0.2,0-0.3-0.1-0.4c-0.1-0.1-0.3,0-0.3,0.1c-0.9,1.9-1.9,3-3.8,3.4c-0.3,0.1-0.3,0.5-0.3,0.8L4,19.5
	H3.8c-0.1,0-0.3,0.1-0.3,0.3c0,0.2,0.1,0.3,0.3,0.3H4l0.5,1.2H3.9c-0.1,0-0.2,0-0.3-0.1l-0.1-0.1c-0.1-0.5-0.3-1-0.3-1.5
	c0-2.3,0-4.5,0-6.8c0.5,0,1-0.3,1.3-0.7c0.5-0.5,0.8-1.2,0.8-2c0.1-0.7,0-1.5-0.4-2.1C4.6,7.4,4.1,7,3.5,6.9C3.9,5.6,4.7,4.6,6,4.4
	L9.4,4.5z M14.7,4.5c0.1,0.4,0.2,0.8,0.2,1.2c0,0.8-0.3,1.6-0.7,2.2c-0.5,0.6-1.1,0.9-1.8,0.9c-0.1,0-0.3,0-0.4,0
	c-0.1,0-0.3-0.1-0.4-0.1l-0.2-0.1l-0.1,0.3C11.2,9,11,9.2,10.8,9.4c-0.5,0.4-1.2,0.3-1.6-0.2C8.7,8.6,8.7,7.6,9.2,7
	c0.1-0.2,0.3-0.3,0.5-0.4l0.2-0.1V6.2c0-0.1,0-0.2,0-0.3c0-0.1,0-0.2,0-0.3c0-0.4,0.1-0.8,0.2-1.2L14.7,4.5z M19.4,10.4L19.4,10.4
	c0,0.1-0.1,0.2-0.1,0.3l-1.1,2.8v0.1c-0.7-0.5-1-1.6-0.6-2.4c0.3-0.6,0.8-0.9,1.3-0.9C19.1,10.2,19.2,10.3,19.4,10.4L19.4,10.4z
	 M3.3,7.5c0.4,0.1,0.8,0.4,1.1,0.8c0.6,1.1,0.5,2.5-0.3,3.4c-0.3,0.3-0.6,0.5-1,0.5V9.1l0,0C3.2,8.5,3.2,8,3.3,7.5L3.3,7.5z
	 M16.4,16.7c0-0.2-0.1-0.3-0.2-0.4c-0.1,0-0.3,0.1-0.3,0.3l-0.4,3c0,0.1,0,0.1,0,0.2l0,0l0.6,1.5H16c-0.1,0-0.3,0.1-0.3,0.3
	c0,0.2,0.1,0.3,0.3,0.3l0,0h0.1c0.3,0,0.5-0.3,0.5-0.7c0-0.1,0-0.1,0-0.2L16,19.6L16.4,16.7L16.4,16.7z M5.9,17.5
	c0-0.2-0.1-0.3-0.2-0.4c-0.1,0-0.3,0.1-0.3,0.3L5,19.6c0,0.1,0,0.1,0,0.2l0,0l0.6,1.5H5.5c-0.1,0-0.3,0.1-0.3,0.3
	c0,0.2,0.1,0.3,0.3,0.3l0,0c0,0,0.7-0.2,0.6-0.9l-0.6-1.5L5.9,17.5z M1.5,13.9c0,0.7-0.1,1.1-0.2,1.4c-0.1,0.2-0.2,0.3-0.4,0.4
	c0.1-0.3,0.2-0.6,0.3-1C1.3,14.4,1.4,14.1,1.5,13.9L1.5,13.9z"/>
</svg>
