<svg id="Layer_1" data-name="Layer 1" xmlns="http://www.w3.org/2000/svg" viewBox="0 0 22 22"><defs><style>.cls-1{opacity:0.5;}.cls-2,.cls-3{fill:#00461c;}.cls-2{fill-rule:evenodd;}</style></defs><g class="cls-1"><path class="cls-2" d="M13.25,6.87c.42-2.48,1.87-3.94,4.26-3.3,1-1.21.74-2.34-.07-2.93a1.69,1.69,0,0,0-2.72.87A2,2,0,0,0,12.11,4.1c-1,1.3-.06,3.11,1.14,2.77Z"/></g><path class="cls-3" d="M12.63,6.86a.32.32,0,0,0,.44,0,.31.31,0,0,0,0-.44.36.36,0,0,1-.07-.1,1.41,1.41,0,0,1-.22-1,1.46,1.46,0,0,1,.52-.94l.1-.07a.34.34,0,0,0,.12-.37h0A1.61,1.61,0,0,1,13.52,3,1.55,1.55,0,0,1,14,2.24a1.38,1.38,0,0,1,.5-.32A1.37,1.37,0,0,1,15,1.83l.16,0,.15,0a.31.31,0,0,0,.37-.17,1.27,1.27,0,0,1,.2-.31,1.54,1.54,0,0,1,.25-.26,1.46,1.46,0,0,1,2,.2,1.68,1.68,0,0,1,.3.52,1.74,1.74,0,0,1,.08.6,1.85,1.85,0,0,1-.11.54,3.79,3.79,0,0,1-.29.65.32.32,0,0,0,.13.43l0,0a4.62,4.62,0,0,1,1.47,1,5.29,5.29,0,0,1,.92,1.06c-2,.56-2.09,2.17-1.78,3.84.08.44.19.87.29,1.29l.08.33a10.18,10.18,0,0,1,.26,1.61,7.69,7.69,0,0,1-1.21,5A7,7,0,0,1,14.11,21a9.68,9.68,0,0,1-1.49.23,11.35,11.35,0,0,1-5.12-.74,9.56,9.56,0,0,1-3.91-2.88l-.09-.12a8.91,8.91,0,0,1-1.2-2.27c-.28-.82-.36-1.63.14-2l0,0a.32.32,0,0,0,.07-.44.28.28,0,0,0-.1-.09,1.66,1.66,0,0,1-.58-.57,1.8,1.8,0,0,1-.28-.76,1,1,0,0,1,.1-.57A.6.6,0,0,1,2,10.48a.31.31,0,0,0,.21-.39A.28.28,0,0,0,2,9.9a1.63,1.63,0,0,1-.61-.56,1.69,1.69,0,0,1-.29-.8,1.26,1.26,0,0,1,0-.34.77.77,0,0,1,.2-.37.55.55,0,0,1,.33-.14.91.91,0,0,1,.23,0,1.4,1.4,0,0,1,.43.2,1.69,1.69,0,0,1,.4.4h0a2.55,2.55,0,0,1,.4.9,8.12,8.12,0,0,1,.21,1.17,7.7,7.7,0,0,0,1.77,4.16,6.56,6.56,0,0,0,3.75,2.13,4.3,4.3,0,0,0,3-.44,4.06,4.06,0,0,0,1.56-1.6,3.88,3.88,0,0,0,.47-2.1,3.56,3.56,0,0,0-1-2.28,2.84,2.84,0,0,0-.25-.23h0A6,6,0,0,0,8.75,8.74a6.27,6.27,0,0,0-1.14.1,6.26,6.26,0,0,1,1.9-.44,5.55,5.55,0,0,1,3.43.86,4.21,4.21,0,0,1,.85.73.31.31,0,0,0,.44,0,.3.3,0,0,0,.09-.33,5.67,5.67,0,0,1,0-2.78,4.54,4.54,0,0,1,1.24-2.27.31.31,0,0,0-.43-.46,5.3,5.3,0,0,0-1.42,2.59,6.14,6.14,0,0,0-.14,2.13l-.24-.17a6.23,6.23,0,0,0-3.82-1A6.24,6.24,0,0,0,5.73,9.27a5.62,5.62,0,0,0-.94,1.06h0a.32.32,0,0,0,0,.42.32.32,0,0,0,.44,0l.17-.17A4.67,4.67,0,0,1,8.75,9.37a5.43,5.43,0,0,1,3.44,1.13h0a1.8,1.8,0,0,1,.2.19,2.92,2.92,0,0,1,.86,1.88,3.21,3.21,0,0,1-.4,1.76,3.33,3.33,0,0,1-1.31,1.35A3.69,3.69,0,0,1,9,16.05,5.92,5.92,0,0,1,5.6,14.13,7.15,7.15,0,0,1,4,10.3a9.57,9.57,0,0,0-.22-1.25,3.21,3.21,0,0,0-.5-1.11h0a2.18,2.18,0,0,0-.54-.55A1.75,1.75,0,0,0,2,7.09a1.44,1.44,0,0,0-.41,0,1.13,1.13,0,0,0-.71.31,1.31,1.31,0,0,0-.38.69,1.56,1.56,0,0,0,0,.53A2.43,2.43,0,0,0,.9,9.69a2.46,2.46,0,0,0,.43.48,1.21,1.21,0,0,0-.21.28,1.59,1.59,0,0,0-.17.92,2.21,2.21,0,0,0,.37,1.05,2.23,2.23,0,0,0,.47.54,2.63,2.63,0,0,0-.09,2.46A9.89,9.89,0,0,0,3,17.86L3.1,18a10.11,10.11,0,0,0,4.16,3.06,11.93,11.93,0,0,0,5.41.79,11.09,11.09,0,0,0,1.58-.25,7.61,7.61,0,0,0,4.62-3.06,8.25,8.25,0,0,0,1.32-5.4,10.86,10.86,0,0,0-.28-1.71l-.08-.33c-.1-.41-.2-.84-.28-1.25-.27-1.45-.2-2.85,1.67-3.2l.08,0a.33.33,0,0,0,.18-.41,5.45,5.45,0,0,0-1.26-1.62,5.87,5.87,0,0,0-1.36-1A3.38,3.38,0,0,0,19,3.2a2.7,2.7,0,0,0,.14-.71,2,2,0,0,0-.12-.83A2.11,2.11,0,0,0,17.27.21a2,2,0,0,0-1.48.44,1.8,1.8,0,0,0-.37.36c-.05.06-.1.14-.15.21l-.2,0a2.21,2.21,0,0,0-.82.13A2.18,2.18,0,0,0,12.9,2.88a2.19,2.19,0,0,0,0,1.05,2.07,2.07,0,0,0-.71,1.3,2.15,2.15,0,0,0,.32,1.48l.11.15Z"/><path class="cls-2" d="M17.66,4.89a.47.47,0,1,0,.46.46.47.47,0,0,0-.46-.46Z"/></svg>
