<svg id="Layer_1" data-name="Layer 1" xmlns="http://www.w3.org/2000/svg" viewBox="0 0 22 22"><defs><style>.cls-1{fill:#00461c;}.cls-2{opacity:0.5;}</style></defs><path class="cls-1" d="M4.16,12.67a.26.26,0,0,1-.26-.26V1.2A.78.78,0,0,1,4.68.42H17a.78.78,0,0,1,.78.78V12.33a.26.26,0,0,1-.26.26.25.25,0,0,1-.26-.26V1.2A.26.26,0,0,0,17,.94H4.68a.26.26,0,0,0-.26.26V12.41A.25.25,0,0,1,4.16,12.67Z"/><path class="cls-1" d="M10.82,13.13a.26.26,0,0,1-.26-.26V.68a.26.26,0,0,1,.52,0V12.87A.26.26,0,0,1,10.82,13.13Z"/><path class="cls-1" d="M17.47,5.21H4.17a.26.26,0,0,1,0-.52h13.3a.26.26,0,0,1,0,.52Z"/><path class="cls-1" d="M17.47,9.32H4.17a.26.26,0,0,1,0-.52h13.3a.26.26,0,0,1,0,.52Z"/><path class="cls-1" d="M18.41,21.58H3.22A.26.26,0,0,1,3,21.32V11.77a.21.21,0,0,1,.1-.17.24.24,0,0,1,.14,0h.09l.08,0h0a2.51,2.51,0,0,0,1.33.68c.9,0,2.35.06,2.83.06h.63a5.19,5.19,0,0,1,3.69.86l0,0,0,0,.09-.06a3,3,0,0,1,.61-.33,7.88,7.88,0,0,1,3.28-.61c.3,0,.52,0,.72,0,.38,0,1.27-.18,1.53-.68a.26.26,0,0,1,.3-.13.25.25,0,0,1,.19.25v9.69A.26.26,0,0,1,18.41,21.58ZM3.48,21.06H18.15V12.27a3.29,3.29,0,0,1-1.45.43,6.35,6.35,0,0,1-.79,0,7.56,7.56,0,0,0-3.06.56,3.81,3.81,0,0,0-.52.29l-.07,0a.73.73,0,0,1-.33.16.46.46,0,0,1-.38-.17,4.66,4.66,0,0,0-3.36-.75H7.55c-.48,0-1.94,0-2.86-.06a2.52,2.52,0,0,1-1.21-.48Z"/><path class="cls-1" d="M18.41,11.89h0a.27.27,0,0,1-.25-.27.53.53,0,0,0-.14-.37.73.73,0,0,0-.53-.14.27.27,0,0,1-.27-.25.25.25,0,0,1,.25-.27,1.16,1.16,0,0,1,.92.3,1,1,0,0,1,.29.75A.26.26,0,0,1,18.41,11.89Z"/><path class="cls-1" d="M3.22,11.89A.26.26,0,0,1,3,11.64a1,1,0,0,1,.29-.75,1.15,1.15,0,0,1,.92-.3.25.25,0,0,1,.25.27.27.27,0,0,1-.27.25.69.69,0,0,0-.53.15.5.5,0,0,0-.14.36.27.27,0,0,1-.25.27Z"/><g class="cls-2"><path class="cls-1" d="M9.89,17.07a9.63,9.63,0,0,1,7.49,3.06V13.39a5.4,5.4,0,0,1-.6.09l-.6,0h-.47a6.71,6.71,0,0,0-2.56.5,3.63,3.63,0,0,0-.41.23h0a1.42,1.42,0,0,1-.71.32h-.12a1.25,1.25,0,0,1-.89-.4,3.24,3.24,0,0,0-2.18-.53H7.55c-.49,0-2,0-2.89-.05a2.9,2.9,0,0,1-.41-.06v0A16.7,16.7,0,0,1,7.38,16,3.25,3.25,0,0,0,9.89,17.07Z"/></g><g class="cls-2"><path class="cls-1" d="M6.74,1.72H5.49A.29.29,0,0,0,5.2,2v1.9h.85a.94.94,0,0,0,.89-.62A2.6,2.6,0,0,1,8.41,1.72Z"/></g><g class="cls-2"><path class="cls-1" d="M13.43,1.72H12.19a.29.29,0,0,0-.3.29v1.9h.85a.93.93,0,0,0,.89-.62A2.6,2.6,0,0,1,15.1,1.72Z"/></g><g class="cls-2"><path class="cls-1" d="M6.74,6H5.49a.29.29,0,0,0-.29.29v1.9h.85a.94.94,0,0,0,.89-.62A2.6,2.6,0,0,1,8.41,6Z"/></g><g class="cls-2"><path class="cls-1" d="M13.43,6H12.19a.29.29,0,0,0-.3.29v1.9h.85a.93.93,0,0,0,.89-.62A2.6,2.6,0,0,1,15.1,6Z"/></g><g class="cls-2"><path class="cls-1" d="M6.74,9.94H5.49a.29.29,0,0,0-.29.29v1.9h.85a.94.94,0,0,0,.89-.62A2.6,2.6,0,0,1,8.41,9.94Z"/></g><g class="cls-2"><path class="cls-1" d="M13.43,9.94H12.19a.29.29,0,0,0-.3.29v1.9h.85a.93.93,0,0,0,.89-.62A2.6,2.6,0,0,1,15.1,9.94Z"/></g></svg>
