<svg id="Layer_1" data-name="Layer 1" xmlns="http://www.w3.org/2000/svg" viewBox="0 0 22 22"><defs><style>.cls-1{fill:#00461c;}.cls-2{opacity:0.5;}</style></defs><path class="cls-1" d="M7.69,20.15a2.25,2.25,0,0,1-.64-.09c-.69-.2-.77-.6-.75-.82A.76.76,0,0,1,7,18.59l1.69-.06a.23.23,0,1,1,0,.46L7,19.05a.3.3,0,0,0-.27.23c0,.14.13.25.41.33a1.94,1.94,0,0,0,1.07,0l1.12-.28a1,1,0,0,0,.73-.94V16.85a.23.23,0,0,1,.23-.23.23.23,0,0,1,.23.23v1.54a1.42,1.42,0,0,1-1.08,1.38l-1.12.29A2.5,2.5,0,0,1,7.69,20.15Z"/><path class="cls-1" d="M6,18.39a.23.23,0,0,1-.09-.45,5.33,5.33,0,0,1,2.18-.32.23.23,0,0,0,.16-.06.22.22,0,0,0,.06-.15V16.13a.23.23,0,0,1,.23-.23.23.23,0,0,1,.23.23v1.28a.67.67,0,0,1-.7.67,4.82,4.82,0,0,0-2,.29Z"/><path class="cls-1" d="M3.15,3.91a.3.3,0,0,1-.3-.3.29.29,0,0,1,.3-.3.3.3,0,0,1,.3.3A.31.31,0,0,1,3.15,3.91Z"/><path class="cls-1" d="M16.38,11.06a2.91,2.91,0,0,1-.57-.06l-1.52-.39a.23.23,0,0,1,.12-.45l1.5.39a1.46,1.46,0,0,0,1.41-.29l-6.2-1.63c-5.71-1.44-7.44,2-7.51,2.13a.24.24,0,0,1-.31.11.23.23,0,0,1-.1-.31s1.94-3.91,8-2.37L17.76,9.9a.23.23,0,0,1,.15.12.27.27,0,0,1,0,.2A1.62,1.62,0,0,1,16.38,11.06Z"/><path class="cls-1" d="M14.53,11.77a3,3,0,0,1-.94-.17l-.89-.3a.23.23,0,0,1,.15-.43l.89.29c1.46.51,1.95-.44,2-.48a.23.23,0,0,1,.42.2A1.78,1.78,0,0,1,14.53,11.77Z"/><path class="cls-1" d="M8,16.37a8.1,8.1,0,0,1-1.93-.22,5.9,5.9,0,0,1-3.89-2.87c-1.57-2.84-.27-5.22.6-6.8.12-.21.22-.41.31-.59a.1.1,0,0,0,0-.11.14.14,0,0,0-.13,0,3.38,3.38,0,0,0-1,.48,2.09,2.09,0,0,1-.53.25A1.58,1.58,0,0,1,1,6.55.67.67,0,0,1,.51,5.38L.91,5A1.33,1.33,0,0,1,1.4,3.93l.08-.06a1.35,1.35,0,0,1,.33-1.34A2.06,2.06,0,0,1,4,2,3.68,3.68,0,0,1,6.24,6a9,9,0,0,0,0,2.39.23.23,0,0,1-.18.28.24.24,0,0,1-.27-.18A9.8,9.8,0,0,1,5.78,6a3.15,3.15,0,0,0-1.9-3.57,1.6,1.6,0,0,0-1.73.41.93.93,0,0,0-.19,1,.22.22,0,0,1-.06.29l-.23.16a.85.85,0,0,0-.29.75.23.23,0,0,1-.07.22l-.49.45A.19.19,0,0,0,.77,6,.18.18,0,0,0,1,6.09,1.23,1.23,0,0,0,1.28,6a1.58,1.58,0,0,0,.42-.2,3.8,3.8,0,0,1,1.21-.54.57.57,0,0,1,.57.22.55.55,0,0,1,.06.6l-.33.6c-.81,1.49-2,3.74-.6,6.36a5.48,5.48,0,0,0,3.6,2.64,10.2,10.2,0,0,0,7.72-1.65l.91-.69A2.15,2.15,0,0,1,16.63,13c2.85.68,4.07-.28,4.48-.75-1.09-.35-3-1-3.08-1a.23.23,0,0,1-.12-.3.22.22,0,0,1,.3-.12l3.35,1.07a.25.25,0,0,1,.14.13.21.21,0,0,1,0,.19c-.05.09-1.19,2.17-5.17,1.22a1.67,1.67,0,0,0-1.4.29l-.93.69A11.31,11.31,0,0,1,8,16.37Z"/><path class="cls-1" d="M10.14,13.59a5.9,5.9,0,0,1-2.25-.46.23.23,0,0,1,.21-.42,4.64,4.64,0,0,0,5.67-1.39.23.23,0,0,1,.36.29A5,5,0,0,1,10.14,13.59Z"/><g class="cls-2"><path class="cls-1" d="M10.94,9.3A10,10,0,0,0,8.52,9c-3,0-4.12,1.78-4.26,2,.88.68,1.53.73,2.3,0,2,1,2-1.34,5.71-1.33Z"/></g></svg>
