<?xml version="1.0" encoding="utf-8"?>
<!-- Generator: Adobe Illustrator 25.1.0, SVG Export Plug-In . SVG Version: 6.00 Build 0)  -->
<svg version="1.1" id="Layer_1" xmlns="http://www.w3.org/2000/svg" xmlns:xlink="http://www.w3.org/1999/xlink" x="0px" y="0px"
	 viewBox="0 0 22 22" style="enable-background:new 0 0 22 22;" xml:space="preserve">
<style type="text/css">
	.st0{fill:#00461C;}
	.st1{opacity:0.5;}
</style>
<path class="st0" d="M14,21.5H9c-0.1,0-0.2-0.1-0.2-0.2c0.1-2.6-0.7-5.2-2.3-7.3c-0.1-0.1-0.1-0.2,0-0.3c0,0,0,0,0,0
	c0.1-0.1,0.2-0.1,0.3,0c0,0,0,0,0,0c1.6,2.1,2.5,4.7,2.5,7.3h4.4c0-2.9,1-5.6,2.9-7.8c0.1-0.1,0.3-0.1,0.4,0c0.1,0.1,0.1,0.2,0,0.3
	c-1.8,2.2-2.8,4.9-2.8,7.7C14.2,21.4,14.1,21.5,14,21.5z"/>
<path class="st0" d="M10.3,16.7c-0.1,0-0.2-0.1-0.2-0.2c-0.4-1.4-1.1-2.7-2.1-3.8c-0.1-0.1,0-0.3,0.1-0.3c0.1-0.1,0.2-0.1,0.3,0
	c0.7,0.8,1.3,1.7,1.7,2.6V13c0-0.1,0.1-0.3,0.2-0.3c0.1,0,0.3,0.1,0.3,0.2c0,0,0,0.1,0,0.1v3.5C10.5,16.6,10.4,16.7,10.3,16.7
	L10.3,16.7z"/>
<path class="st0" d="M12.5,17.5h-0.1c-0.3-0.1-0.5-0.3-0.5-0.6v-4c0-0.1,0.1-0.2,0.2-0.2s0.2,0.1,0.2,0.2v4c0,0.1,0,0.1,0.1,0.1
	c0,0,0,0,0,0c0.1,0,0.1,0,0.1-0.1c0,0,0,0,0,0c0.6-1.6,1.6-3.1,2.7-4.5c0.1-0.1,0.3-0.1,0.4,0c0.1,0.1,0.1,0.2,0,0.3
	c-1.1,1.3-2,2.7-2.7,4.3C12.9,17.3,12.7,17.5,12.5,17.5z"/>
<path class="st0" d="M14.7,11.7c-0.1,0-0.2-0.1-0.2-0.1C13.9,10.4,14,9.1,14.7,8c0.1-0.1,0.2-0.2,0.3-0.1c0.1,0.1,0.2,0.2,0.1,0.3
	c0,0,0,0,0,0.1c-0.6,0.9-0.7,2.1-0.2,3.1c0.1,0.1,0,0.3-0.1,0.3H14.7z"/>
<path class="st0" d="M4.8,14.5c-2.5,0-4.6-2.1-4.6-4.6c0-1.4,0.7-2.8,1.8-3.6C2,6.1,2,6,2,5.8c0-2,1.7-3.7,3.7-3.7c0,0,0,0,0,0
	c0.2,0,0.4,0,0.6,0.1c2.6-2.4,6.6-2.3,9,0.2C15.6,2.7,15.8,3,16,3.2c0.3-0.1,0.6-0.1,0.9-0.1c1.5,0,2.8,1.2,2.8,2.8l0,0
	c0,0.2,0,0.5-0.1,0.7c1.9,0.9,2.8,3.1,1.9,5.1c-0.6,1.4-2,2.3-3.5,2.2c-1.4,0-2.7-0.7-3.3-1.9c-1.1,0.9-2.5,1.3-3.9,1.3
	c-0.9,0-1.7-0.1-2.5-0.3C7.4,13.9,6.1,14.5,4.8,14.5z M5.7,2.7c-1.8,0-3.2,1.4-3.2,3.2c0,0.2,0,0.3,0,0.5c0,0.1,0,0.2-0.1,0.2
	c-1.9,1.3-2.3,3.8-1.1,5.7C2.1,13.4,3.4,14,4.8,14c1.2,0,2.4-0.5,3.1-1.5c0.1-0.1,0.2-0.1,0.3-0.1c0.8,0.3,1.7,0.4,2.5,0.4
	c1.4,0,2.7-0.5,3.8-1.4c0.1-0.1,0.1-0.1,0.2-0.1c0.1,0,0.1,0.1,0.2,0.1c0.8,1.7,2.7,2.4,4.4,1.6s2.4-2.7,1.6-4.4
	c-0.4-0.8-1-1.4-1.8-1.7c-0.1,0-0.2-0.2-0.1-0.3c0,0,0,0,0,0c0.4-1.2-0.2-2.5-1.4-2.9c-0.2-0.1-0.5-0.1-0.7-0.1
	c-0.3,0-0.6,0.1-0.9,0.2c-0.1,0.1-0.2,0-0.3-0.1C13.9,1,10.3,0.2,7.5,1.9c-0.3,0.2-0.7,0.5-1,0.8C6.5,2.7,6.4,2.8,6.3,2.8
	C6.1,2.7,5.9,2.7,5.7,2.7z"/>
<g class="st1">
	<path class="st0" d="M15.5,4.8C11.4,2,9.8,4.2,9.8,4.2C9.5,3.4,9,2.8,8.3,2.3c2.3-1.2,5.2-0.4,6.7,1.8L15.5,4.8z"/>
</g>
<path class="st0" d="M3.7,8.9c-0.1,0-0.1,0-0.2-0.1C2.8,8.3,2.2,7.4,2.1,6.4c0-0.1,0.1-0.3,0.2-0.3c0,0,0,0,0,0
	c0.1,0,0.3,0.1,0.3,0.2c0.1,0.9,0.6,1.6,1.3,2.1C4,8.5,4,8.7,3.9,8.8c0,0,0,0,0,0C3.9,8.9,3.8,8.9,3.7,8.9z"/>
<path class="st0" d="M8.9,4.8c-0.1,0-0.2-0.1-0.2-0.2C8.2,3.7,7.4,3,6.3,2.7c-0.1,0-0.2-0.2-0.2-0.3c0-0.1,0.1-0.2,0.3-0.2
	c0,0,0,0,0,0c1.2,0.2,2.2,1.1,2.6,2.2c0.1,0.1,0,0.3-0.1,0.3L8.9,4.8z"/>
<g class="st1">
	<path class="st0" d="M6,13c-0.4,0.2-0.8,0.2-1.2,0.2c-1.8-0.1-3.3-1.6-3.2-3.4c0-0.6,0.2-1.1,0.5-1.6c0.3,0.5,0.7,0.9,1.2,1.3
		C3.2,9.5,2.3,12.3,6,13z"/>
</g>
</svg>
