<svg id="Layer_1" data-name="Layer 1" xmlns="http://www.w3.org/2000/svg" viewBox="0 0 22 22"><defs><style>.cls-1{opacity:0.5;}.cls-2,.cls-3{fill:#00461c;}.cls-3{fill-rule:evenodd;}</style></defs><g class="cls-1"><path class="cls-2" d="M14.5,15.54l-.6,3.6v.06l.15.66c0,.13,0,.29-.13.29h-.23a.32.32,0,0,1-.16,0,.19.19,0,0,1-.08-.11h0c-.1-.28-.2-.56-.28-.85h0c0-.37.45-3,.42-3.72a2,2,0,0,0,.92.12Z"/></g><g class="cls-1"><path class="cls-2" d="M6.64,16.54l-.4,2.6v.06l.15.66c0,.13,0,.29-.13.29H6a.32.32,0,0,1-.16,0A.19.19,0,0,1,5.79,20h0c-.1-.28-.2-.56-.28-.85h0c0-.37,0-1.49,0-2.19a2.3,2.3,0,0,0,1.14-.41Z"/></g><g class="cls-1"><path class="cls-2" d="M5.26,16.88,5,19.14v.06l.15.66c0,.13,0,.29-.13.29H4.74a.3.3,0,0,1-.16,0A.2.2,0,0,1,4.49,20c-.11-.29-.34-.57-.42-.86,0-.72,0-2,0-2.71a1.61,1.61,0,0,0,1.16.45Z"/></g><g class="cls-1"><path class="cls-2" d="M13.06,16.62l-.35,2.52a.13.13,0,0,0,0,.06c0,.22.1.44.15.66s0,.29-.14.29h-.09a.93.93,0,0,1-.26,0,.2.2,0,0,1-.09-.12c-.11-.29-.34-.57-.42-.86V16.83a2.17,2.17,0,0,0,1.19-.21Z"/></g><g class="cls-1"><path class="cls-2" d="M17.7,10.22h2.24a2.07,2.07,0,0,0,.74-.14,1.44,1.44,0,0,0,.54-.35A1.76,1.76,0,0,0,21.62,8a1.75,1.75,0,0,0-.47-.76,1.68,1.68,0,0,0-.79-.44l-.93-.21-.91-.19a1.64,1.64,0,0,1-.43.55,1.66,1.66,0,0,1-.75.34.9.9,0,0,1-.14.6,7.43,7.43,0,0,1,.5,2.25v.1Z"/></g><path class="cls-2" d="M13.5,15a.08.08,0,0,1,0,0c0-.06,0-.13,0-.19h0a.26.26,0,0,1,.31-.2l.28,0h.3a2.36,2.36,0,0,0,2.3-2.42,2.45,2.45,0,0,0,0-.27c0-.08,0-.17-.06-.26a.3.3,0,0,1,0-.22,3.53,3.53,0,0,0,.56-1.07,3.49,3.49,0,0,0,0-2.16,3.68,3.68,0,0,0-.39-.88.26.26,0,0,1,0-.29,2,2,0,0,0,.18-.32,1.4,1.4,0,0,0,.1-.35.26.26,0,0,1,.25-.21A.92.92,0,0,0,18,6a.85.85,0,0,0,.29-.43s0,0,0,0h0s0,0,0,0a.25.25,0,0,1,.33-.16l.09,0h.09a.5.5,0,0,0,.49-.49v0h0a.49.49,0,0,0-.15-.34.52.52,0,0,0-.34-.14h0a.79.79,0,0,0-.22.06.52.52,0,0,0-.17.16l0,0a.27.27,0,0,1-.37,0,1,1,0,0,0-.28-.17.76.76,0,0,0-.33,0,.78.78,0,0,0-.31.06.76.76,0,0,0-.26.16.27.27,0,0,1-.34,0,1.57,1.57,0,0,0-.5-.25,1.52,1.52,0,0,0-.56-.08,1.81,1.81,0,0,0-1.1.42l0,0a.26.26,0,0,1-.36-.06,2.73,2.73,0,0,0-1-.87,2.69,2.69,0,0,0-1.29-.29A3.4,3.4,0,0,0,11,3.6a3,3,0,0,0-.59.24.26.26,0,0,1-.27,0,2.43,2.43,0,0,0-.71-.33,2.55,2.55,0,0,0-2.27.43,2.46,2.46,0,0,0-.9,1.29v0a.25.25,0,0,1-.33.16,2.49,2.49,0,0,0-.37-.09,1.7,1.7,0,0,0-.39,0,2.1,2.1,0,0,0-1.24.42,2.13,2.13,0,0,0-.77,1,.19.19,0,0,1-.05.09.25.25,0,0,1-.36,0l-.15-.08-.17,0-.14,0a.47.47,0,0,0-.12.07h0a.26.26,0,0,1-.36-.08.48.48,0,0,0-.21-.19.53.53,0,0,0-.28-.07.57.57,0,0,0-.39.18.56.56,0,0,0-.16.4.55.55,0,0,0,.18.39.56.56,0,0,0,.4.16h.16a.38.38,0,0,1,.3,0h0a.33.33,0,0,1,.13.13A.53.53,0,0,1,2,8H2a.39.39,0,0,1-.15.28,1.38,1.38,0,0,0-.41.52,1.43,1.43,0,0,0-.13.65,1.27,1.27,0,0,0,.2.7,1.47,1.47,0,0,0,.53.52A.26.26,0,0,1,2.1,11a2.13,2.13,0,0,0-.13.45,2.59,2.59,0,0,0,0,.48,2.37,2.37,0,0,0,2,2.27.27.27,0,0,1,.22.3s0,.07,0,.11v.12h0a1.35,1.35,0,0,0,.42.95,1.38,1.38,0,0,0,1,.38h0a1.49,1.49,0,0,0,.56-.14,1.47,1.47,0,0,0,.46-.36h0a.25.25,0,0,1,.43,0,2.27,2.27,0,0,0,.89,1,2.35,2.35,0,0,0,2.37,0,2.48,2.48,0,0,0,.83-.78v0a.26.26,0,0,1,.36-.07,1.37,1.37,0,0,0,.37.17h0a1.4,1.4,0,0,0,.41.06,1.37,1.37,0,0,0,.86-.33A1.49,1.49,0,0,0,13.5,15ZM5.42,12.77a.27.27,0,0,1,0-.37.25.25,0,0,1,.36,0l.14.1h0l.14.06a.86.86,0,0,0,.61,0,1,1,0,0,0,.54-.35.26.26,0,1,1,.4.33,1.5,1.5,0,0,1-.81.52A1.39,1.39,0,0,1,5.85,13l-.21-.1h0l-.2-.14Zm9.87-.6a.26.26,0,0,1,.12-.35.25.25,0,0,1,.34.12,1.27,1.27,0,0,1,.11.81,1.31,1.31,0,0,1-1.94.91.26.26,0,0,1-.09-.35.26.26,0,0,1,.35-.1.78.78,0,0,0,.94-.12.71.71,0,0,0,.23-.43.82.82,0,0,0-.06-.49Zm-10,.88a.26.26,0,0,1,.33.15.27.27,0,0,1-.15.34,1.86,1.86,0,0,1-2.09-2.92.27.27,0,0,1,.37,0,.25.25,0,0,1,0,.36,1.37,1.37,0,0,0-.3.78,1.39,1.39,0,0,0,.22.8,1.33,1.33,0,0,0,.7.54,1.36,1.36,0,0,0,.89,0Zm11-6.9A.26.26,0,0,1,16.62,6a.25.25,0,0,1,.14.34A3.82,3.82,0,0,1,15.1,8.42a3.28,3.28,0,0,1-2.35.16.24.24,0,0,1-.17-.14,1.31,1.31,0,0,1-.15-.61,1.85,1.85,0,0,1,.35-1A2.41,2.41,0,0,1,13.65,6a2.31,2.31,0,0,1,1.11-.28A.26.26,0,0,1,15,6a.26.26,0,0,1-.26.26,1.88,1.88,0,0,0-.86.21,1.92,1.92,0,0,0-.7.62,1.31,1.31,0,0,0-.25.73.87.87,0,0,0,.05.28A2.69,2.69,0,0,0,14.86,8a3.33,3.33,0,0,0,1.42-1.81Zm-1.81,9.33a.27.27,0,0,1,.3-.23.29.29,0,0,1,.22.32l-.47,2.89.15.71s0,.06,0,.1a.84.84,0,0,1-.07.32.5.5,0,0,1-.36.28l-.11,0h-.09a.27.27,0,0,1-.26-.28.26.26,0,0,1,.25-.27h.11a.11.11,0,0,0,0,0L14,18.54a.24.24,0,0,1,0-.12l.47-2.94Zm-.32,3.85ZM6.44,16.86a.26.26,0,0,1,.29-.23.27.27,0,0,1,.22.31l-.19,1.51.16.72v.1a.69.69,0,0,1-.07.32.47.47,0,0,1-.35.28l-.11,0h-.1A.28.28,0,0,1,6,19.61a.27.27,0,0,1,.26-.27h.1l0,0-.16-.75a.34.34,0,0,1,0-.1l.2-1.57Zm0,2.47ZM19.53,5.52l.07,0,.82.19a2,2,0,0,1,.93.51,2.05,2.05,0,0,1,.56.89,2.1,2.1,0,0,1,0,1.08,2.18,2.18,0,0,1-.51,1,1.88,1.88,0,0,1-.66.43,2.24,2.24,0,0,1-.84.16H18.53a.25.25,0,0,1-.26-.26.26.26,0,0,1,.26-.26h1.41a2.15,2.15,0,0,0,.65-.13,1.35,1.35,0,0,0,.47-.3,1.57,1.57,0,0,0,.38-.72,1.53,1.53,0,0,0,0-.82A1.56,1.56,0,0,0,21,6.61a1.52,1.52,0,0,0-.69-.38L19.49,6l-.8-.16a1.47,1.47,0,0,1-.38.48,1.39,1.39,0,0,1-.65.3l-.09.27c0,.09-.09.18-.14.27a4.22,4.22,0,0,1,.37.87A4.28,4.28,0,0,1,18,9.16a4.13,4.13,0,0,1-.2,1.37,3.93,3.93,0,0,1-.57,1.14,1.18,1.18,0,0,1,0,.2c0,.1,0,.21,0,.32a2.85,2.85,0,0,1-.79,2.05,2.81,2.81,0,0,1-2,.89,2,2,0,0,1-.35,0H14v0l-.49,3.34.15.7a.3.3,0,0,1,0,.1.71.71,0,0,1-.08.32v0a.47.47,0,0,1-.34.26H13c-.45,0-.52-.18-.6-.41h0l-.15-.42c0-.17-.11-.34-.15-.51a.19.19,0,0,1,0-.08v-2a1.61,1.61,0,0,1-.43-.07h0l-.28-.11a2.91,2.91,0,0,1-.88.76,2.78,2.78,0,0,1-1.35.37A2.84,2.84,0,0,1,7.64,17a2.88,2.88,0,0,1-.91-.86,2.2,2.2,0,0,1-.38.24A1.74,1.74,0,0,1,6,16.5l-.24,1.95.16.72s0,.06,0,.1a.71.71,0,0,1-.08.32.47.47,0,0,1-.35.28l-.11,0h-.1c-.45,0-.51-.18-.6-.41h0c0-.12-.11-.28-.16-.42s-.11-.34-.15-.51c0,0,0-.05,0-.08V16.14L4.23,16a1.88,1.88,0,0,1-.58-1.32h0v0a2.86,2.86,0,0,1-2.22-2.73,2.78,2.78,0,0,1,0-.58A2,2,0,0,1,1.55,11,2,2,0,0,1,1,10.41a2.06,2.06,0,0,1-.27-1,2,2,0,0,1,.18-.88,2,2,0,0,1,.25-.39,1.09,1.09,0,0,1-.95-1,1.11,1.11,0,0,1,.3-.77A1,1,0,0,1,1.28,6a1.06,1.06,0,0,1,.53.12,1,1,0,0,1,.26.19l.05,0a1.26,1.26,0,0,1,.28-.05,1.27,1.27,0,0,1,.34.05h0A2.72,2.72,0,0,1,5.14,4.76a2.58,2.58,0,0,1,.48,0l.21,0a3.15,3.15,0,0,1,1-1.33,3.11,3.11,0,0,1,1.8-.63A3.61,3.61,0,0,1,9.57,3a3.59,3.59,0,0,1,.72.32,2.78,2.78,0,0,1,.57-.21A3.66,3.66,0,0,1,11.62,3a3.28,3.28,0,0,1,1.53.35,3.32,3.32,0,0,1,1,.82,2.19,2.19,0,0,1,1.21-.39,2.48,2.48,0,0,1,.73.1,2.71,2.71,0,0,1,.49.22A1.71,1.71,0,0,1,16.89,4a1.53,1.53,0,0,1,.49-.1,1.7,1.7,0,0,1,.51.08.9.9,0,0,1,.24.12l.18-.13a.94.94,0,0,1,.47-.12h0a1,1,0,0,1,.7.28,1,1,0,0,1,.32.71h0v0a1,1,0,0,1-.28.7ZM12.64,16.38v2.06a4,4,0,0,0,.13.42c.05.16.1.3.14.41h0s0,.06.12.06h.1l0,0L13,18.55a.24.24,0,0,1,0-.12l.35-2.38a1.89,1.89,0,0,1-.7.33Zm-7.19.17a1.88,1.88,0,0,1-.59-.12v2c0,.13.08.28.13.42s.11.3.15.41h0s0,.06.12.06h.11a.43.43,0,0,1,0,0l-.16-.75a.17.17,0,0,1,0-.1l.23-1.88Zm-.08,2.78Zm7.78,0Z"/><path class="cls-3" d="M18.76,6.65A.36.36,0,1,1,18.4,7a.36.36,0,0,1,.36-.36Z"/></svg>
