<svg id="Layer_1" data-name="Layer 1" xmlns="http://www.w3.org/2000/svg" viewBox="0 0 22 22"><defs><style>.cls-1{fill:#00461c;}.cls-2{opacity:0.5;}</style></defs><path class="cls-1" d="M18.44,9.53a.35.35,0,0,1-.17,0,2.36,2.36,0,0,1-1.38-1.35A4,4,0,0,1,17,5.46L13.25,1.9C5.64,1.81,2,5.3,1.58,5.7a.48.48,0,0,1-.11.09.43.43,0,0,1-.59-.16A.44.44,0,0,1,1,5.09C1.67,4.37,5.53.87,13.43,1a.4.4,0,0,1,.29.12L17.85,5a.44.44,0,0,1,.09.5,3.53,3.53,0,0,0-.23,2.3,1.51,1.51,0,0,0,.89.86.44.44,0,0,1-.16.84Z"/><path class="cls-1" d="M20.72,20.53h-.07L1.19,17.61a.43.43,0,0,1-.37-.43V5.41A.41.41,0,0,1,1,5.08.43.43,0,0,1,1.32,5L14.48,7a.43.43,0,0,1,.32.23.41.41,0,0,1,0,.39,2.41,2.41,0,0,0-.25,1.08,2.5,2.5,0,0,0,2.49,2.5h.26a.43.43,0,0,1,.47.36A3,3,0,0,0,20.72,14a.44.44,0,0,1,.43.44v5.68a.41.41,0,0,1-.15.33A.43.43,0,0,1,20.72,20.53Zm-19-3.73,18.59,2.79V14.82A3.84,3.84,0,0,1,17,12a3.37,3.37,0,0,1-3.32-3.37,3.58,3.58,0,0,1,.13-.92L1.69,5.92Z"/><g class="cls-2"><path class="cls-1" d="M9.56,15.69a1.14,1.14,0,1,1-1.14-1.15A1.14,1.14,0,0,1,9.56,15.69Z"/><circle class="cls-1" cx="11.65" cy="15.15" r="0.72"/><path class="cls-1" d="M10.48,12.75A.72.72,0,1,1,9.76,12,.72.72,0,0,1,10.48,12.75Z"/><path class="cls-1" d="M11.43,8.32,2.63,7v9l2.71.41A10.72,10.72,0,0,1,11.43,8.32Z"/></g></svg>
