<svg id="Layer_1" data-name="Layer 1" xmlns="http://www.w3.org/2000/svg" viewBox="0 0 22 22"><defs><style>.cls-1{fill:#00461c;}</style></defs><path class="cls-1" d="M20.28,9.85c.37-.31.76-.63.72-1s-.51-.66-1-.88a2.4,2.4,0,0,1-.55-.33A2.39,2.39,0,0,1,19.85,7c.3-.39.6-.79.45-1.18s-.67-.52-1.16-.62a2.71,2.71,0,0,1-.61-.17,2.89,2.89,0,0,1,.17-.75c.17-.53.33-1,.06-1.34a.47.47,0,0,0-.39-.15A7.25,7.25,0,0,0,12.21,7.5a1.19,1.19,0,0,1-1.11.79h-.2A1.19,1.19,0,0,1,9.79,7.5,7.25,7.25,0,0,0,3.63,2.81.47.47,0,0,0,3.24,3c-.27.32-.11.81.06,1.34a2.59,2.59,0,0,1,.17.75,2.71,2.71,0,0,1-.61.17c-.49.1-1,.2-1.16.62s.15.79.45,1.18a2.27,2.27,0,0,1,.36.57A2.4,2.4,0,0,1,2,7.92c-.44.22-.91.45-1,.88s.35.74.72,1a2.21,2.21,0,0,1,.49.46,2.48,2.48,0,0,1-.49.47c-.37.31-.76.62-.72,1s.51.67,1,.89a2.4,2.4,0,0,1,.55.33,2.6,2.6,0,0,1-.36.57c-.3.38-.6.78-.45,1.18s.67.52,1.16.62a2.27,2.27,0,0,1,.61.17,2.89,2.89,0,0,1-.17.75c-.17.52-.33,1-.06,1.34a.49.49,0,0,0,.39.14,7.23,7.23,0,0,0,6.16-4.68,1.19,1.19,0,0,1,1.11-.79h.2a1.19,1.19,0,0,1,1.11.79,7.23,7.23,0,0,0,6.16,4.68h0a.49.49,0,0,0,.39-.14c.27-.32.11-.82-.06-1.34a2.59,2.59,0,0,1-.17-.75,2.27,2.27,0,0,1,.61-.17c.49-.1,1-.2,1.16-.62s-.15-.8-.45-1.18a2.69,2.69,0,0,1-.36-.57,2.4,2.4,0,0,1,.55-.33c.44-.22.91-.45,1-.89s-.35-.73-.72-1a2.48,2.48,0,0,1-.49-.47A2.21,2.21,0,0,1,20.28,9.85Zm-1.19.46c0,.41.38.71.74,1a2.43,2.43,0,0,1,.46.43,2.58,2.58,0,0,1-.56.34c-.43.21-.84.41-.92.79s.2.77.49,1.15a3,3,0,0,1,.34.52,2.91,2.91,0,0,1-.64.18c-.46.09-.9.18-1.08.5A1.77,1.77,0,0,0,18,16.54c.05.16.13.4.16.56a6.61,6.61,0,0,1-5.33-4.2,1.9,1.9,0,0,0-1.77-1.26h-.2A1.89,1.89,0,0,0,9.13,12.9,6.61,6.61,0,0,1,3.8,17.1c0-.16.11-.4.16-.56a1.77,1.77,0,0,0,.12-1.31c-.18-.32-.62-.41-1.08-.5a2.43,2.43,0,0,1-.64-.19A3.45,3.45,0,0,1,2.7,14c.29-.38.58-.76.49-1.15s-.49-.58-.92-.79a2.58,2.58,0,0,1-.56-.34,2.43,2.43,0,0,1,.46-.43c.36-.3.74-.6.74-1s-.38-.71-.74-1a3.31,3.31,0,0,1-.46-.43,2.58,2.58,0,0,1,.56-.34c.43-.21.84-.41.92-.79S3,7,2.7,6.6a3,3,0,0,1-.34-.52A2.91,2.91,0,0,1,3,5.9c.46-.09.9-.18,1.08-.51A1.77,1.77,0,0,0,4,4.08a5.15,5.15,0,0,1-.16-.56A6.61,6.61,0,0,1,9.13,7.73,1.89,1.89,0,0,0,10.9,9h.2a1.88,1.88,0,0,0,1.77-1.25A6.61,6.61,0,0,1,18.2,3.52a5.15,5.15,0,0,1-.16.56,1.77,1.77,0,0,0-.12,1.31c.18.33.62.42,1.08.51a2.91,2.91,0,0,1,.64.18,3,3,0,0,1-.34.52c-.29.37-.58.76-.49,1.15s.49.58.92.79a2.58,2.58,0,0,1,.56.34,3.31,3.31,0,0,1-.46.43C19.47,9.6,19.09,9.91,19.09,10.31Z"/><path class="cls-1" d="M11.86,10.31a3.13,3.13,0,0,1,.45-.22c.67-.26,2.08-.67,2.16-.68a8.5,8.5,0,0,0-2.27.4,2.76,2.76,0,0,0-.6.26,2.56,2.56,0,0,1-1.21,0,2.12,2.12,0,0,0-.59-.26,8.44,8.44,0,0,0-2.27-.4c.09,0,1.49.42,2.16.69a2.31,2.31,0,0,1,.45.21,1.88,1.88,0,0,1-.45.22c-.72.29-2.1.68-2.16.69a8.64,8.64,0,0,0,2.27-.4,3,3,0,0,0,.6-.27,2.68,2.68,0,0,1,1.21,0,2.54,2.54,0,0,0,.59.26,9,9,0,0,0,2.27.4c-.1,0-1.51-.43-2.16-.69A2.35,2.35,0,0,1,11.86,10.31Z"/></svg>
