<svg id="Layer_1" data-name="Layer 1" xmlns="http://www.w3.org/2000/svg" viewBox="0 0 22 22"><defs><style>.cls-1{opacity:0.5;}.cls-2,.cls-3{fill:#00461c;}.cls-3{fill-rule:evenodd;}</style></defs><g class="cls-1"><path class="cls-2" d="M17.8,10l-.23.09c-.33-.39-.66-.79-1-1.15l-.31-.29a9.93,9.93,0,0,0-3-1.86,10.55,10.55,0,0,0-3.48-.72,9.86,9.86,0,0,0-3.5.53,7.65,7.65,0,0,0-4,3.19,4.76,4.76,0,0,0-.45,1.08A4.85,4.85,0,0,0,1.64,12a7.26,7.26,0,0,0,.07,1.29c0,.28.1.55.16.8a5.46,5.46,0,0,0,1,2,1.53,1.53,0,0,1,.27.7c.26,1.46-.12,1.78.89,3.09.16.19.23.34.54.34H5c.23,0,.22-.09.2-.3l0-.31a.28.28,0,0,1,0-.09,1.3,1.3,0,0,1,.18-.62,2.51,2.51,0,0,1,.45-.58c.12-.13.25-.24.35-.33.69-.54.79-.17,1.21.3a8,8,0,0,0,1.17,1.16c.27.23.29.28.59.29H9.5a.24.24,0,0,0,.18-.34l-.15-.27a3.69,3.69,0,0,1-.27-.8l.34,0a12.73,12.73,0,0,0,1.37.08,13.82,13.82,0,0,0,1.58-.07,6.38,6.38,0,0,0,.83,1.49,1.15,1.15,0,0,0,.19.24.59.59,0,0,0,.27,0h.51c.08,0,.17,0,.19-.12a.22.22,0,0,0,0-.09l0-.4a1.76,1.76,0,0,1,0-.39,2.12,2.12,0,0,1,.12-.41,2.68,2.68,0,0,1,.19-.42,5.43,5.43,0,0,1,.32-.51h0a.82.82,0,0,0,.15.45,5.47,5.47,0,0,0,.83,1.15,1.4,1.4,0,0,0,.22.24.64.64,0,0,0,.28.06h.42a.26.26,0,0,0,.23-.31l-.07-.3c-.11-.5-.1-2.21.31-2.56a1.41,1.41,0,0,1,.45-.15l.34-.05h0a3.44,3.44,0,0,0,1.76-.62,1.42,1.42,0,0,0,.25-.24c.07-.1.18-.13.36-.09h0a.15.15,0,0,0,.15,0,.9.9,0,0,0,.19-.43,6.49,6.49,0,0,0,.17-1.16c0-.14-.05-.23-.2-.22h-.15l-.06.2-.25,0a.85.85,0,0,1-.31,0,1.48,1.48,0,0,1-.29-.12,2.08,2.08,0,0,1-.31-.22,1.18,1.18,0,0,1-.24-.29L19.41,13h0l-.06-.12c-.13-.26-.34-.67-.54-1l-.29-.46.54-.07a1.7,1.7,0,0,0,1.12-.7,2.32,2.32,0,0,0,.31-.61,3,3,0,0,0,.08-.32l0-.12c-.54.36-1.47.18-2.12.24a2.69,2.69,0,0,0-.68.16Z"/></g><path class="cls-2" d="M7.5,18.32a.24.24,0,0,1,0-.35.25.25,0,0,1,.35,0,3.19,3.19,0,0,0,.26.26,2.8,2.8,0,0,1,.29.32,3.38,3.38,0,0,0,.57.6.6.6,0,0,0,.35.11h.43c.06,0-.1,0-.11,0v0a3.38,3.38,0,0,1-.13-.37,1.34,1.34,0,0,1,0-.35.26.26,0,0,1,.26-.25.24.24,0,0,1,.24.25.8.8,0,0,0,0,.23,2.44,2.44,0,0,0,.11.31v0c.14.38.06.56-.19.65a1,1,0,0,1-.36,0H9.36a1.07,1.07,0,0,1-.64-.2,3.5,3.5,0,0,1-.68-.7,3,3,0,0,0-.25-.26,4.11,4.11,0,0,1-.29-.3Zm8.23,0a.26.26,0,0,1,.43-.28,2.6,2.6,0,0,0,.2.3h0c.06.08.11.16.16.24a1.28,1.28,0,0,0,.35.41.83.83,0,0,0,.45.07c.09,0,.12.06.12,0a.71.71,0,0,0-.07-.23l-.06-.15v0a2.85,2.85,0,0,1,.16-1.93l0-.07a.25.25,0,1,1,.47.17l0,.08a2.42,2.42,0,0,0-.15,1.6h0a.69.69,0,0,0,.05.13,1.17,1.17,0,0,1,.1.41c0,.27-.14.47-.62.47a1.35,1.35,0,0,1-.72-.15,1.86,1.86,0,0,1-.49-.56c-.05-.07-.1-.15-.16-.22h0l-.22-.31Zm2.12-10.2a.25.25,0,0,1-.34-.37,1.59,1.59,0,0,1,1.74-.13c.33.11.62.21.72,0a.26.26,0,0,1,.35-.09.27.27,0,0,1,.12.2h0a1.24,1.24,0,0,1-.08.51,2.56,2.56,0,0,1-.2.37.25.25,0,1,1-.42-.28l.06-.1a3.14,3.14,0,0,1-.71-.17c-.42-.14-.89-.3-1.24,0Zm-.66,3.26a.24.24,0,0,1-.22.28.25.25,0,0,1-.28-.22c0-.06,0-.13,0-.19A2.44,2.44,0,0,1,17,9.79a2.26,2.26,0,0,1,1.7-1l.28,0h.67c.59,0,.91,0,1.23-.29a.24.24,0,0,1,.35,0,.24.24,0,0,1,.07.21,3.82,3.82,0,0,1-.15.75,2.44,2.44,0,0,1-.89,1.22,2,2,0,0,1-.82.32c.21.34.42.76.56,1l.1.2a1.06,1.06,0,0,0,.17.23.87.87,0,0,0,.25.15.24.24,0,0,1,.14.32.25.25,0,0,1-.33.14,1.22,1.22,0,0,1-.4-.24,1.14,1.14,0,0,1-.27-.37,1.9,1.9,0,0,1-.11-.21,7.5,7.5,0,0,0-.81-1.37.25.25,0,0,1-.05-.25.25.25,0,0,1,.31-.16.47.47,0,0,0,.17,0,1.22,1.22,0,0,0,.81-.24,1.85,1.85,0,0,0,.69-1,.49.49,0,0,1,0-.11,3.05,3.05,0,0,1-1.06.09h-.64l-.25,0a1.76,1.76,0,0,0-1.34.74,2,2,0,0,0-.29,1.15c0,.06,0,.12,0,.16ZM21.25,14a.25.25,0,1,1-.49-.12,3.63,3.63,0,0,0,.11-.61l0-.14c.08-.52.09-.62.65-.56s.52.19.49.49a.5.5,0,0,1,0,.16.59.59,0,0,0,0,.13c0,.07,0,.15,0,.24a5.9,5.9,0,0,1-.13.79c-.12.47-.34.82-.77.71,0,0,0,0,0,0a.83.83,0,0,0-.16.12,3.58,3.58,0,0,1-2.1.81,2,2,0,0,0-.56.11h0a7,7,0,0,0-.74.45,6.67,6.67,0,0,1-.94.56l-.41.17-.34.13a3.82,3.82,0,0,0-.41.75,1.54,1.54,0,0,0-.11.64l0,.41h0a.59.59,0,0,1-.09.37l0,0a.54.54,0,0,1-.33.19h-.64a.74.74,0,0,1-.73-.44l-.36-.47a2.18,2.18,0,0,1-.28-.52c0-.11-.06-.21-.08-.32A13.7,13.7,0,0,1,10,18a12.46,12.46,0,0,1-2.81-.62,2.85,2.85,0,0,0-.59.47,1.57,1.57,0,0,0-.52,1s0,0,0,.06l0,.3a.85.85,0,0,1-.06.46.51.51,0,0,1-.49.22H5.08c-.41,0-.49-.1-.74-.38l-.07-.09L3.94,19a3.78,3.78,0,0,1-.55-2,2.84,2.84,0,0,0-.27-1.3,5.81,5.81,0,0,1-.8-1.33,6.28,6.28,0,0,1-.42-1.59A6.34,6.34,0,0,1,2,10.1,5.43,5.43,0,0,1,3.3,7.84a7.57,7.57,0,0,1,.64-.63,9.07,9.07,0,0,1,6.37-2.14,10.42,10.42,0,0,1,6.55,2.65,9,9,0,0,1,.81.82.25.25,0,0,1,0,.35.25.25,0,0,1-.36,0,8,8,0,0,0-.77-.77,9.88,9.88,0,0,0-6.23-2.53,8.56,8.56,0,0,0-6,2q-.31.28-.6.6a5.14,5.14,0,0,0-1.18,2.05,5.72,5.72,0,0,0-.09,2.39,5.46,5.46,0,0,0,.39,1.47,5,5,0,0,0,.72,1.21,2.93,2.93,0,0,1,.38,1.58,3.49,3.49,0,0,0,.44,1.77l.33.42.07.08c.13.16.17.21.35.21h.46s0,0,0,0,0-.06,0-.15l0-.31a.38.38,0,0,1,0-.1,2,2,0,0,1,.67-1.31,2.42,2.42,0,0,1,.87-.61h.17a13,13,0,0,0,2.76.62,14.15,14.15,0,0,0,2.91,0h0a.25.25,0,0,1,.28.22,2.11,2.11,0,0,0,.1.45,1.44,1.44,0,0,0,.2.39l.37.47v0c.11.15.15.21.34.22h.55v0h0l0-.4a1.94,1.94,0,0,1,.14-.87,3.94,3.94,0,0,1,.52-.93.27.27,0,0,1,.12-.09l.4-.15.38-.16a5.83,5.83,0,0,0,.87-.51,6.8,6.8,0,0,1,.8-.49h0a2.57,2.57,0,0,1,.72-.16,3.13,3.13,0,0,0,1.83-.69l.24-.18a.51.51,0,0,1,.38-.06c.05,0,.11-.15.16-.36a6.43,6.43,0,0,0,.13-.72c0-.1,0-.19,0-.26s0-.11,0-.16a.58.58,0,0,0,0-.1c0-.05,0,.06,0,.06s-.08,0-.1.13l0,.14c0,.2,0,.3-.12.66ZM7.19,17.39Z"/><path class="cls-3" d="M18.24,11.29a.35.35,0,1,1-.35.34.35.35,0,0,1,.35-.34Z"/><path class="cls-2" d="M2.22,8.51a.25.25,0,0,1,.1.34A.26.26,0,0,1,2,8.94,2.48,2.48,0,0,1,.91,7.81h0A1.78,1.78,0,0,1,.17,7.5L.09,7.43a.24.24,0,0,1,0-.35.24.24,0,0,1,.35,0l.06,0a.94.94,0,0,0,.26.14A1.89,1.89,0,0,1,.8,6.35a1.27,1.27,0,0,1,1-1,1,1,0,0,1,.6.11,1.08,1.08,0,0,1,.43.42,1.15,1.15,0,0,1-.14,1.25l-.06.08a1.77,1.77,0,0,1-1.12.58,2.15,2.15,0,0,0,.74.69Zm-.94-2a1.34,1.34,0,0,0,0,.82H1.4a1.29,1.29,0,0,0,.82-.41l0,0a.64.64,0,0,0,.1-.71.69.69,0,0,0-.23-.22.42.42,0,0,0-.29,0c-.21,0-.43.21-.56.63Z"/></svg>
