<svg id="Layer_1" data-name="Layer 1" xmlns="http://www.w3.org/2000/svg" viewBox="0 0 22 22"><defs><style>.cls-1{fill:#00461c;}.cls-2{opacity:0.5;}</style></defs><path class="cls-1" d="M11.52,21.33a1,1,0,0,1-.94-.62h0A32.32,32.32,0,0,1,7.92,12a2.73,2.73,0,0,1,1.9-3.09h0a6.91,6.91,0,0,1,3.32,0h0A2.73,2.73,0,0,1,15.12,12a32.32,32.32,0,0,1-2.66,8.69A1,1,0,0,1,11.52,21.33Zm0-12.15A6.19,6.19,0,0,0,10,9.37H9.93A2.25,2.25,0,0,0,8.38,12,31.76,31.76,0,0,0,11,20.51h0a.56.56,0,0,0,1,0A31.76,31.76,0,0,0,14.66,12a2.25,2.25,0,0,0-1.55-2.57h0A6.32,6.32,0,0,0,11.52,9.18Z"/><path class="cls-1" d="M14.79,11.37H12.48a.23.23,0,0,1,0-.46h2.31a.23.23,0,0,1,0,.46Z"/><path class="cls-1" d="M14.86,12.4H13.63a.23.23,0,0,1-.23-.23.23.23,0,0,1,.23-.23h1.23a.23.23,0,0,1,.23.23A.23.23,0,0,1,14.86,12.4Z"/><path class="cls-1" d="M11.35,15.85H9a.23.23,0,0,1-.23-.23A.24.24,0,0,1,9,15.39h2.31a.23.23,0,0,1,.23.23A.23.23,0,0,1,11.35,15.85Z"/><path class="cls-1" d="M10.54,16.89H9.31a.23.23,0,1,1,0-.46h1.23a.23.23,0,1,1,0,.46Z"/><path class="cls-1" d="M7.83,8.14a1.3,1.3,0,0,1-1.3-1.3,1,1,0,0,1,0-.17,1.65,1.65,0,0,1-.85-1.46A1.69,1.69,0,0,1,7.37,3.52h.17l.12,0,.11,0,.08,0h0c1,.28,2.23,1.23,2.71,4.22a.27.27,0,0,1-.12.25A.25.25,0,0,1,10.19,8a1.57,1.57,0,0,0-1.28-.44A1.33,1.33,0,0,1,7.83,8.14ZM7.39,4h0A1.22,1.22,0,0,0,6.15,5.21a1.24,1.24,0,0,0,.74,1.13A.22.22,0,0,1,7,6.61a.91.91,0,0,0,0,.23.85.85,0,0,0,.84.84.86.86,0,0,0,.74-.42.24.24,0,0,1,.14-.12A2.17,2.17,0,0,1,10,7.33c-.4-1.84-1.18-3-2.28-3.29h0L7.66,4,7.58,4H7.39Z"/><path class="cls-1" d="M15.21,8.14a1.3,1.3,0,0,1-1.07-.56A1.59,1.59,0,0,0,12.85,8a.23.23,0,0,1-.26.05.26.26,0,0,1-.13-.25c.48-3,1.74-3.94,2.71-4.22h0l.09,0,.11,0,.09,0h.2a1.69,1.69,0,0,1,1.68,1.69,1.66,1.66,0,0,1-.86,1.46,1,1,0,0,1,0,.17A1.31,1.31,0,0,1,15.21,8.14ZM14,7.11a2.56,2.56,0,0,1,.37,0,.29.29,0,0,1,.15.12.84.84,0,0,0,1.57-.42.91.91,0,0,0,0-.23.23.23,0,0,1,.13-.27,1.24,1.24,0,0,0,.74-1.13A1.22,1.22,0,0,0,15.67,4a.23.23,0,0,0-.12,0h-.09l-.08,0-.07,0-.07-.22L15.3,4c-1.1.32-1.88,1.45-2.28,3.29A2.07,2.07,0,0,1,14,7.11Zm1.28-3.29Z"/><path class="cls-1" d="M8.77,7.6l-.11,0a.23.23,0,0,1-.1-.31.87.87,0,0,0,.09-.37.77.77,0,0,0-.3-.61.24.24,0,0,1,0-.33.22.22,0,0,1,.32,0,1.25,1.25,0,0,1,.47,1A1.3,1.3,0,0,1,9,7.47.23.23,0,0,1,8.77,7.6Z"/><path class="cls-1" d="M14.46,3.54a.23.23,0,0,1-.23-.23,1.51,1.51,0,0,0-1.35-1.5.21.21,0,0,1-.19-.17,1.22,1.22,0,0,0-2.34,0,.21.21,0,0,1-.19.17,1.51,1.51,0,0,0-1.35,1.5.23.23,0,0,1-.46,0A2,2,0,0,1,10,1.37a1.67,1.67,0,0,1,3.12,0,2,2,0,0,1,1.61,1.94A.23.23,0,0,1,14.46,3.54Z"/><g class="cls-2"><path class="cls-1" d="M12.83,2.43h0l-.58-.06-.15-.56a.6.6,0,0,0-.57-.42.58.58,0,0,0-.56.42l-.15.56-.58.06h0a.72.72,0,0,0-.44,1.18,9,9,0,0,1,1.74,3.82,9.32,9.32,0,0,1,1.74-3.82A.71.71,0,0,0,12.83,2.43Z"/></g></svg>
